<?xml version="1.0" encoding="utf-8"?>
<svg viewBox="91.9998 210.0379 187.8456 33.1155" width="187.846" height="33.116" xmlns="http://www.w3.org/2000/svg">
  <path fill="#FFAC33" d="M 118.287 242.565 C 117.883 242.565 117.481 242.441 117.135 242.194 L 109 236.36 L 100.865 242.194 C 100.174 242.692 99.241 242.689 98.553 242.186 C 97.865 241.687 97.574 240.803 97.832 239.992 L 100.866 230.2 L 92.804 224.519 C 92.119 224.014 91.834 223.127 92.096 222.316 C 92.361 221.508 93.112 220.959 93.962 220.953 L 103.947 220.938 L 107.126 211.389 C 107.608 209.946 109.471 209.566 110.48 210.704 C 110.656 210.903 110.791 211.137 110.875 211.389 L 114 220.938 L 124.036 220.953 C 125.557 220.962 126.498 222.613 125.73 223.926 C 125.594 224.158 125.412 224.36 125.195 224.519 L 117.133 230.2 L 120.167 239.992 C 120.426 240.802 120.136 241.687 119.447 242.186 C 119.111 242.433 118.705 242.566 118.287 242.565 Z" transform="matrix(1, 0, 0, 1, 0, -2.842170943040401e-14)"/>
  <path fill="#FFAC33" d="M 156.903 242.72 C 156.499 242.72 156.097 242.596 155.751 242.349 L 147.616 236.515 L 139.481 242.349 C 138.79 242.847 137.857 242.844 137.169 242.341 C 136.481 241.842 136.19 240.958 136.448 240.147 L 139.482 230.355 L 131.42 224.674 C 130.735 224.169 130.45 223.282 130.712 222.471 C 130.977 221.663 131.728 221.114 132.578 221.108 L 142.563 221.093 L 145.742 211.544 C 146.224 210.101 148.087 209.721 149.096 210.859 C 149.272 211.058 149.407 211.292 149.491 211.544 L 152.616 221.093 L 162.652 221.108 C 164.173 221.117 165.114 222.768 164.346 224.081 C 164.21 224.313 164.028 224.515 163.811 224.674 L 155.749 230.355 L 158.783 240.147 C 159.042 240.957 158.752 241.842 158.063 242.341 C 157.727 242.588 157.321 242.721 156.903 242.72 Z" transform="matrix(1, 0, 0, 1, 0, -2.842170943040401e-14)"/>
  <path fill="#FFAC33" d="M 195.812 242.86 C 195.408 242.86 195.006 242.736 194.66 242.489 L 186.525 236.655 L 178.39 242.489 C 177.699 242.987 176.766 242.984 176.078 242.481 C 175.39 241.982 175.099 241.098 175.357 240.287 L 178.391 230.495 L 170.329 224.814 C 169.644 224.309 169.359 223.422 169.621 222.611 C 169.886 221.803 170.637 221.254 171.487 221.248 L 181.472 221.233 L 184.651 211.684 C 185.133 210.241 186.996 209.861 188.005 210.999 C 188.181 211.198 188.316 211.432 188.4 211.684 L 191.525 221.233 L 201.561 221.248 C 203.082 221.257 204.023 222.908 203.255 224.221 C 203.119 224.453 202.937 224.655 202.72 224.814 L 194.658 230.495 L 197.692 240.287 C 197.951 241.097 197.661 241.982 196.972 242.481 C 196.636 242.728 196.23 242.861 195.812 242.86 Z" transform="matrix(1, 0, 0, 1, 0, -2.842170943040401e-14)"/>
  <path fill="#FFAC33" d="M 234.333 242.894 C 233.929 242.894 233.527 242.77 233.181 242.523 L 225.046 236.689 L 216.911 242.523 C 216.22 243.021 215.287 243.018 214.599 242.515 C 213.911 242.016 213.62 241.132 213.878 240.321 L 216.912 230.529 L 208.85 224.848 C 208.165 224.343 207.88 223.456 208.142 222.645 C 208.407 221.837 209.158 221.288 210.008 221.282 L 219.993 221.267 L 223.172 211.718 C 223.654 210.275 225.517 209.895 226.526 211.033 C 226.702 211.232 226.837 211.466 226.921 211.718 L 230.046 221.267 L 240.082 221.282 C 241.603 221.291 242.544 222.942 241.776 224.255 C 241.64 224.487 241.458 224.689 241.241 224.848 L 233.179 230.529 L 236.213 240.321 C 236.472 241.131 236.182 242.016 235.493 242.515 C 235.157 242.762 234.751 242.895 234.333 242.894 Z" transform="matrix(1, 0, 0, 1, 0, -2.842170943040401e-14)"/>
  <path fill="#FFAC33" d="M 272.129 243.153 C 271.725 243.153 271.323 243.029 270.977 242.782 L 262.842 236.948 L 254.707 242.782 C 254.016 243.28 253.083 243.277 252.395 242.774 C 251.707 242.275 251.416 241.391 251.674 240.58 L 254.708 230.788 L 246.646 225.107 C 245.961 224.602 245.676 223.715 245.938 222.904 C 246.203 222.096 246.954 221.547 247.804 221.541 L 257.789 221.526 L 260.968 211.977 C 261.45 210.534 263.313 210.154 264.322 211.292 C 264.498 211.491 264.633 211.725 264.717 211.977 L 267.842 221.526 L 277.878 221.541 C 279.399 221.55 280.34 223.201 279.572 224.514 C 279.436 224.746 279.254 224.948 279.037 225.107 L 270.975 230.788 L 274.009 240.58 C 274.268 241.39 273.978 242.275 273.289 242.774 C 272.953 243.021 272.547 243.154 272.129 243.153 Z" transform="matrix(1, 0, 0, 1, 0, -2.842170943040401e-14)"/>
</svg>