<?xml version="1.0" encoding="utf-8"?>
<svg viewBox="35.835 257.2694 140.7496 29.2746" width="140.75" height="29.275" xmlns="http://www.w3.org/2000/svg">
  <defs>
    <linearGradient id="a" x1="72.195%" x2="17.503%" y1="0%" y2="100%">
      <stop offset="0" stop-color="#33D35E"/>
      <stop offset="1" stop-color="#2AB6D9"/>
    </linearGradient>
  </defs>
  <g fill="url(#a)" transform="matrix(1, 0, 0, 1, 35.83502197265625, 263.2917175292969)">
    <path d="M10.802 0L0 19.704h5.986L16.789 0z"/>
    <path opacity=".5" d="M18.171 0L7.368 19.704h5.986L24.157 0z"/>
    <path opacity=".15" d="M25.539 0L14.737 19.704h5.986L31.525 0z"/>
  </g>
  <path d="M 37.634 45.269 Q 35.254 45.269 33.52 44.47 Q 31.786 43.671 30.664 42.328 Q 29.542 40.985 28.981 39.319 Q 28.42 37.653 28.42 35.885 Q 28.42 34.185 28.947 32.536 Q 29.474 30.887 30.579 29.527 Q 31.684 28.167 33.401 27.368 Q 35.118 26.569 37.464 26.569 Q 39.946 26.569 41.867 27.657 Q 43.788 28.745 44.876 30.87 Q 45.964 32.995 45.964 36.021 L 45.964 37.279 L 33.622 37.279 Q 33.724 38.911 34.761 40.101 Q 35.798 41.291 37.634 41.291 Q 38.688 41.291 39.351 40.968 Q 40.014 40.645 40.388 40.22 Q 40.762 39.795 40.898 39.455 Q 41.034 39.115 41.034 39.115 L 45.794 39.115 Q 45.794 39.115 45.641 39.744 Q 45.488 40.373 45.012 41.291 Q 44.536 42.209 43.635 43.127 Q 42.734 44.045 41.272 44.657 Q 39.81 45.269 37.634 45.269 Z M 33.622 34.151 L 41 34.151 Q 40.898 32.281 39.878 31.363 Q 38.858 30.445 37.362 30.445 Q 35.866 30.445 34.812 31.414 Q 33.758 32.383 33.622 34.151 Z M 49.192 44.929 L 49.192 41.393 L 58.236 30.955 L 49.532 30.955 L 49.532 26.909 L 64.424 26.909 L 64.424 30.445 L 55.38 40.883 L 64.424 40.883 L 64.424 44.929 Z M 67.723 44.929 L 67.723 19.769 L 72.959 19.769 L 72.959 44.929 Z M 77.242 44.929 L 77.242 26.909 L 82.41 26.909 L 82.41 29.493 L 82.58 29.493 Q 82.886 28.949 83.481 28.269 Q 84.076 27.589 85.079 27.079 Q 86.082 26.569 87.646 26.569 Q 89.754 26.569 91.08 27.538 Q 92.406 28.507 93.018 30.02 Q 93.63 31.533 93.63 33.199 L 93.63 44.929 L 88.462 44.929 L 88.462 34.083 Q 88.462 32.791 87.765 31.805 Q 87.068 30.819 85.538 30.819 Q 84.382 30.819 83.702 31.363 Q 83.022 31.907 82.716 32.757 Q 82.41 33.607 82.41 34.559 L 82.41 44.929 Z M 102.296 44.929 L 95.7 26.909 L 100.868 26.909 L 105.084 39.115 L 109.13 26.909 L 114.332 26.909 L 107.702 44.929 Z M 125.41 45.269 Q 122.384 45.269 120.276 43.96 Q 118.168 42.651 117.063 40.526 Q 115.958 38.401 115.958 35.919 Q 115.958 33.437 117.063 31.312 Q 118.168 29.187 120.276 27.878 Q 122.384 26.569 125.41 26.569 Q 128.436 26.569 130.544 27.878 Q 132.652 29.187 133.757 31.312 Q 134.862 33.437 134.862 35.919 Q 134.862 38.401 133.757 40.526 Q 132.652 42.651 130.544 43.96 Q 128.436 45.269 125.41 45.269 Z M 125.41 41.053 Q 126.77 41.053 127.705 40.339 Q 128.64 39.625 129.15 38.452 Q 129.66 37.279 129.66 35.919 Q 129.66 34.525 129.15 33.369 Q 128.64 32.213 127.705 31.499 Q 126.77 30.785 125.41 30.785 Q 124.05 30.785 123.098 31.499 Q 122.146 32.213 121.653 33.369 Q 121.16 34.525 121.16 35.919 Q 121.16 37.279 121.653 38.452 Q 122.146 39.625 123.098 40.339 Q 124.05 41.053 125.41 41.053 Z M 141.638 24.461 Q 140.278 24.461 139.428 23.594 Q 138.578 22.727 138.578 21.537 Q 138.578 20.279 139.428 19.412 Q 140.278 18.545 141.638 18.545 Q 142.93 18.545 143.814 19.412 Q 144.698 20.279 144.698 21.537 Q 144.698 22.727 143.814 23.594 Q 142.93 24.461 141.638 24.461 Z M 139.054 44.929 L 139.054 26.909 L 144.222 26.909 L 144.222 44.929 Z M 157.788 45.269 Q 155.408 45.269 153.64 44.47 Q 151.872 43.671 150.716 42.345 Q 149.56 41.019 148.982 39.336 Q 148.404 37.653 148.404 35.919 Q 148.404 34.185 148.982 32.519 Q 149.56 30.853 150.716 29.51 Q 151.872 28.167 153.64 27.368 Q 155.408 26.569 157.788 26.569 Q 160.202 26.569 161.766 27.266 Q 163.33 27.963 164.265 29 Q 165.2 30.037 165.642 31.074 Q 166.084 32.111 166.203 32.808 Q 166.322 33.505 166.322 33.505 L 161.494 33.505 Q 161.494 33.505 161.375 33.08 Q 161.256 32.655 160.899 32.094 Q 160.542 31.533 159.828 31.108 Q 159.114 30.683 157.924 30.683 Q 156.462 30.683 155.493 31.414 Q 154.524 32.145 154.048 33.335 Q 153.572 34.525 153.572 35.919 Q 153.572 37.313 154.048 38.503 Q 154.524 39.693 155.493 40.424 Q 156.462 41.155 157.924 41.155 Q 159.114 41.155 159.828 40.73 Q 160.542 40.305 160.899 39.744 Q 161.256 39.183 161.375 38.758 Q 161.494 38.333 161.494 38.333 L 166.322 38.333 Q 166.322 38.333 166.203 39.03 Q 166.084 39.727 165.642 40.764 Q 165.2 41.801 164.265 42.838 Q 163.33 43.875 161.766 44.572 Q 160.202 45.269 157.788 45.269 Z M 178.799 45.269 Q 176.419 45.269 174.685 44.47 Q 172.951 43.671 171.829 42.328 Q 170.707 40.985 170.146 39.319 Q 169.585 37.653 169.585 35.885 Q 169.585 34.185 170.112 32.536 Q 170.639 30.887 171.744 29.527 Q 172.849 28.167 174.566 27.368 Q 176.283 26.569 178.629 26.569 Q 181.111 26.569 183.032 27.657 Q 184.953 28.745 186.041 30.87 Q 187.129 32.995 187.129 36.021 L 187.129 37.279 L 174.787 37.279 Q 174.889 38.911 175.926 40.101 Q 176.963 41.291 178.799 41.291 Q 179.853 41.291 180.516 40.968 Q 181.179 40.645 181.553 40.22 Q 181.927 39.795 182.063 39.455 Q 182.199 39.115 182.199 39.115 L 186.959 39.115 Q 186.959 39.115 186.806 39.744 Q 186.653 40.373 186.177 41.291 Q 185.701 42.209 184.8 43.127 Q 183.899 44.045 182.437 44.657 Q 180.975 45.269 178.799 45.269 Z M 174.787 34.151 L 182.165 34.151 Q 182.063 32.281 181.043 31.363 Q 180.023 30.445 178.527 30.445 Q 177.031 30.445 175.977 31.414 Q 174.923 32.383 174.787 34.151 Z" transform="matrix(0.676624, 0, 0, 0.689582, 48.79166, 249.504959)" style="fill: rgb(55, 60, 83);"/>
</svg>